<svg id="Слой_1" data-name="Слой 1" xmlns="http://www.w3.org/2000/svg" viewBox="0 0 496.88 496.68">
    <defs>
        <style>.cls-1{fill:url(#MyGradient);}</style>
        <linearGradient id="MyGradient">
            <stop offset="5%" stop-color="#67d1f4" />
            <stop offset="95%" stop-color="#6058f0" />
        </linearGradient>
    </defs>
    <path class="cls-1"
          d="M492.05,468.54,271.73,248.23l220.1-220.1a16.48,16.48,0,0,0,0-23.3h0a16.48,16.48,0,0,0-23.31,0L248.43,224.92,28.36,4.85A16.48,16.48,0,0,0,5.05,28.16L225.12,248.23,4.83,468.52a16.48,16.48,0,0,0,0,23.31h0a16.48,16.48,0,0,0,23.3,0l220.3-220.3L468.75,491.85a16.48,16.48,0,1,0,23.3-23.31Z"/>
</svg>